<mxfile host="app.diagrams.net" modified="2022-12-20T09:40:17.937Z" agent="5.0 (Windows NT 10.0; Win64; x64) AppleWebKit/537.36 (KHTML, like Gecko) Chrome/108.0.0.0 Safari/537.36" etag="YhgektOiwgC-Z9R8-F2A" version="20.5.1" type="github" pages="5">
  <diagram name="Page-1" id="b520641d-4fe3-3701-9064-5fc419738815">
    <mxGraphModel dx="1240" dy="661" grid="1" gridSize="10" guides="1" tooltips="1" connect="1" arrows="1" fold="1" page="1" pageScale="1" pageWidth="1100" pageHeight="850" background="none" math="0" shadow="0">
      <root>
        <mxCell id="0" />
        <mxCell id="1" parent="0" />
        <mxCell id="gmkQyzEVSHB1KBnhdpyR-9" style="edgeStyle=orthogonalEdgeStyle;rounded=0;orthogonalLoop=1;jettySize=auto;html=1;exitX=0.75;exitY=1;exitDx=0;exitDy=0;entryX=0;entryY=0;entryDx=0;entryDy=0;fontSize=17;" edge="1" parent="1" source="gmkQyzEVSHB1KBnhdpyR-1" target="gmkQyzEVSHB1KBnhdpyR-2">
          <mxGeometry relative="1" as="geometry" />
        </mxCell>
        <mxCell id="gmkQyzEVSHB1KBnhdpyR-10" value="id_transaksi" style="edgeLabel;html=1;align=center;verticalAlign=middle;resizable=0;points=[];fontSize=17;" vertex="1" connectable="0" parent="gmkQyzEVSHB1KBnhdpyR-9">
          <mxGeometry x="-0.4032" y="3" relative="1" as="geometry">
            <mxPoint x="48" as="offset" />
          </mxGeometry>
        </mxCell>
        <mxCell id="gmkQyzEVSHB1KBnhdpyR-11" style="edgeStyle=orthogonalEdgeStyle;rounded=0;orthogonalLoop=1;jettySize=auto;html=1;exitX=1;exitY=0.75;exitDx=0;exitDy=0;entryX=0.227;entryY=0.067;entryDx=0;entryDy=0;entryPerimeter=0;fontSize=17;" edge="1" parent="1" source="gmkQyzEVSHB1KBnhdpyR-1" target="gmkQyzEVSHB1KBnhdpyR-2">
          <mxGeometry relative="1" as="geometry" />
        </mxCell>
        <mxCell id="gmkQyzEVSHB1KBnhdpyR-12" value="pembayaran" style="edgeLabel;html=1;align=center;verticalAlign=middle;resizable=0;points=[];fontSize=17;" vertex="1" connectable="0" parent="gmkQyzEVSHB1KBnhdpyR-11">
          <mxGeometry x="-0.5105" y="-3" relative="1" as="geometry">
            <mxPoint as="offset" />
          </mxGeometry>
        </mxCell>
        <mxCell id="PLoJnBfHy9YoaFX-_E0t-13" style="edgeStyle=orthogonalEdgeStyle;rounded=0;orthogonalLoop=1;jettySize=auto;html=1;exitX=0.5;exitY=1;exitDx=0;exitDy=0;entryX=0.056;entryY=0.278;entryDx=0;entryDy=0;entryPerimeter=0;fontSize=17;startArrow=none;startFill=0;endArrow=classic;endFill=1;" edge="1" parent="1" source="gmkQyzEVSHB1KBnhdpyR-1" target="gmkQyzEVSHB1KBnhdpyR-2">
          <mxGeometry relative="1" as="geometry">
            <Array as="points">
              <mxPoint x="220" y="310" />
              <mxPoint x="472" y="310" />
              <mxPoint x="472" y="312" />
            </Array>
          </mxGeometry>
        </mxCell>
        <mxCell id="PLoJnBfHy9YoaFX-_E0t-14" value="Membuat_laporan" style="edgeLabel;html=1;align=center;verticalAlign=middle;resizable=0;points=[];fontSize=17;" vertex="1" connectable="0" parent="PLoJnBfHy9YoaFX-_E0t-13">
          <mxGeometry x="0.0674" y="3" relative="1" as="geometry">
            <mxPoint x="47" as="offset" />
          </mxGeometry>
        </mxCell>
        <mxCell id="gmkQyzEVSHB1KBnhdpyR-1" value="Kasir" style="rounded=0;whiteSpace=wrap;html=1;" vertex="1" parent="1">
          <mxGeometry x="160" y="100" width="120" height="60" as="geometry" />
        </mxCell>
        <mxCell id="gmkQyzEVSHB1KBnhdpyR-14" style="edgeStyle=orthogonalEdgeStyle;rounded=0;orthogonalLoop=1;jettySize=auto;html=1;exitX=0;exitY=0.5;exitDx=0;exitDy=0;entryX=0.405;entryY=1.069;entryDx=0;entryDy=0;entryPerimeter=0;fontSize=17;" edge="1" parent="1" source="gmkQyzEVSHB1KBnhdpyR-2" target="gmkQyzEVSHB1KBnhdpyR-1">
          <mxGeometry relative="1" as="geometry" />
        </mxCell>
        <mxCell id="gmkQyzEVSHB1KBnhdpyR-15" value="Laporan Pembayaran" style="edgeLabel;html=1;align=center;verticalAlign=middle;resizable=0;points=[];fontSize=17;" vertex="1" connectable="0" parent="gmkQyzEVSHB1KBnhdpyR-14">
          <mxGeometry x="-0.3137" y="4" relative="1" as="geometry">
            <mxPoint x="5" as="offset" />
          </mxGeometry>
        </mxCell>
        <mxCell id="gmkQyzEVSHB1KBnhdpyR-22" style="edgeStyle=orthogonalEdgeStyle;rounded=0;orthogonalLoop=1;jettySize=auto;html=1;exitX=0.5;exitY=0;exitDx=0;exitDy=0;entryX=0;entryY=0.5;entryDx=0;entryDy=0;fontSize=17;" edge="1" parent="1" source="gmkQyzEVSHB1KBnhdpyR-2" target="gmkQyzEVSHB1KBnhdpyR-3">
          <mxGeometry relative="1" as="geometry" />
        </mxCell>
        <mxCell id="gmkQyzEVSHB1KBnhdpyR-23" value="list Pesanan" style="edgeLabel;html=1;align=center;verticalAlign=middle;resizable=0;points=[];fontSize=17;" vertex="1" connectable="0" parent="gmkQyzEVSHB1KBnhdpyR-22">
          <mxGeometry x="0.0823" y="-3" relative="1" as="geometry">
            <mxPoint x="48" as="offset" />
          </mxGeometry>
        </mxCell>
        <mxCell id="gmkQyzEVSHB1KBnhdpyR-25" style="edgeStyle=orthogonalEdgeStyle;rounded=0;orthogonalLoop=1;jettySize=auto;html=1;exitX=0;exitY=1;exitDx=0;exitDy=0;entryX=0.369;entryY=-0.002;entryDx=0;entryDy=0;entryPerimeter=0;fontSize=17;" edge="1" parent="1" source="gmkQyzEVSHB1KBnhdpyR-2" target="gmkQyzEVSHB1KBnhdpyR-5">
          <mxGeometry relative="1" as="geometry" />
        </mxCell>
        <mxCell id="gmkQyzEVSHB1KBnhdpyR-26" value="Laporan transaksi" style="edgeLabel;html=1;align=center;verticalAlign=middle;resizable=0;points=[];fontSize=17;" vertex="1" connectable="0" parent="gmkQyzEVSHB1KBnhdpyR-25">
          <mxGeometry x="-0.0472" y="-1" relative="1" as="geometry">
            <mxPoint as="offset" />
          </mxGeometry>
        </mxCell>
        <mxCell id="gmkQyzEVSHB1KBnhdpyR-2" value="&lt;font style=&quot;font-size: 17px;&quot;&gt;SISTEM &lt;br&gt;LAUNDRY&lt;/font&gt;" style="ellipse;whiteSpace=wrap;html=1;" vertex="1" parent="1">
          <mxGeometry x="472" y="262" width="180" height="180" as="geometry" />
        </mxCell>
        <mxCell id="gmkQyzEVSHB1KBnhdpyR-18" style="edgeStyle=orthogonalEdgeStyle;rounded=0;orthogonalLoop=1;jettySize=auto;html=1;exitX=0.5;exitY=1;exitDx=0;exitDy=0;entryX=1;entryY=0.5;entryDx=0;entryDy=0;fontSize=17;" edge="1" parent="1" source="gmkQyzEVSHB1KBnhdpyR-3" target="gmkQyzEVSHB1KBnhdpyR-2">
          <mxGeometry relative="1" as="geometry" />
        </mxCell>
        <mxCell id="gmkQyzEVSHB1KBnhdpyR-19" value="status_pesanan" style="edgeLabel;html=1;align=center;verticalAlign=middle;resizable=0;points=[];fontSize=17;" vertex="1" connectable="0" parent="gmkQyzEVSHB1KBnhdpyR-18">
          <mxGeometry x="-0.6833" y="-1" relative="1" as="geometry">
            <mxPoint as="offset" />
          </mxGeometry>
        </mxCell>
        <mxCell id="gmkQyzEVSHB1KBnhdpyR-3" value="Karyawan" style="rounded=0;whiteSpace=wrap;html=1;" vertex="1" parent="1">
          <mxGeometry x="760" y="100" width="120" height="60" as="geometry" />
        </mxCell>
        <mxCell id="gmkQyzEVSHB1KBnhdpyR-8" style="edgeStyle=orthogonalEdgeStyle;rounded=0;orthogonalLoop=1;jettySize=auto;html=1;exitX=0.75;exitY=0;exitDx=0;exitDy=0;fontSize=17;" edge="1" parent="1" source="gmkQyzEVSHB1KBnhdpyR-5" target="gmkQyzEVSHB1KBnhdpyR-2">
          <mxGeometry relative="1" as="geometry" />
        </mxCell>
        <mxCell id="gmkQyzEVSHB1KBnhdpyR-24" value="periode_lap" style="edgeLabel;html=1;align=center;verticalAlign=middle;resizable=0;points=[];fontSize=17;" vertex="1" connectable="0" parent="gmkQyzEVSHB1KBnhdpyR-8">
          <mxGeometry x="-0.3347" relative="1" as="geometry">
            <mxPoint as="offset" />
          </mxGeometry>
        </mxCell>
        <mxCell id="PLoJnBfHy9YoaFX-_E0t-9" style="edgeStyle=orthogonalEdgeStyle;rounded=0;orthogonalLoop=1;jettySize=auto;html=1;exitX=1;exitY=0.25;exitDx=0;exitDy=0;entryX=0.756;entryY=0.956;entryDx=0;entryDy=0;entryPerimeter=0;fontSize=17;startArrow=none;startFill=0;endArrow=classic;endFill=1;" edge="1" parent="1" source="gmkQyzEVSHB1KBnhdpyR-5" target="gmkQyzEVSHB1KBnhdpyR-2">
          <mxGeometry relative="1" as="geometry" />
        </mxCell>
        <mxCell id="PLoJnBfHy9YoaFX-_E0t-10" value="revisi_laporan" style="edgeLabel;html=1;align=center;verticalAlign=middle;resizable=0;points=[];fontSize=17;" vertex="1" connectable="0" parent="PLoJnBfHy9YoaFX-_E0t-9">
          <mxGeometry x="-0.0981" y="-3" relative="1" as="geometry">
            <mxPoint y="-4" as="offset" />
          </mxGeometry>
        </mxCell>
        <mxCell id="gmkQyzEVSHB1KBnhdpyR-5" value="Kepala Laundry" style="rounded=1;whiteSpace=wrap;html=1;" vertex="1" parent="1">
          <mxGeometry x="160" y="550" width="120" height="60" as="geometry" />
        </mxCell>
      </root>
    </mxGraphModel>
  </diagram>
  <diagram id="h-2sY4D89F5GFu1-Nezz" name="Halaman-2">
    <mxGraphModel dx="1447" dy="772" grid="1" gridSize="10" guides="1" tooltips="1" connect="1" arrows="1" fold="1" page="1" pageScale="1" pageWidth="827" pageHeight="1169" math="0" shadow="0">
      <root>
        <mxCell id="0" />
        <mxCell id="1" parent="0" />
        <mxCell id="NVnCQtZbrxtKKmBB1BB7-1" style="edgeStyle=orthogonalEdgeStyle;rounded=0;orthogonalLoop=1;jettySize=auto;html=1;exitX=0.75;exitY=1;exitDx=0;exitDy=0;entryX=0.408;entryY=-0.017;entryDx=0;entryDy=0;fontSize=17;entryPerimeter=0;" edge="1" parent="1" source="NVnCQtZbrxtKKmBB1BB7-5" target="NVnCQtZbrxtKKmBB1BB7-8">
          <mxGeometry relative="1" as="geometry">
            <mxPoint x="340.36038969321066" y="288.36038969321066" as="targetPoint" />
          </mxGeometry>
        </mxCell>
        <mxCell id="NVnCQtZbrxtKKmBB1BB7-2" value="id_transaksi" style="edgeLabel;html=1;align=center;verticalAlign=middle;resizable=0;points=[];fontSize=17;" vertex="1" connectable="0" parent="NVnCQtZbrxtKKmBB1BB7-1">
          <mxGeometry x="-0.4032" y="3" relative="1" as="geometry">
            <mxPoint x="48" as="offset" />
          </mxGeometry>
        </mxCell>
        <mxCell id="NVnCQtZbrxtKKmBB1BB7-3" style="edgeStyle=orthogonalEdgeStyle;rounded=0;orthogonalLoop=1;jettySize=auto;html=1;exitX=1;exitY=0.75;exitDx=0;exitDy=0;entryX=0.633;entryY=-0.017;entryDx=0;entryDy=0;entryPerimeter=0;fontSize=17;" edge="1" parent="1" source="NVnCQtZbrxtKKmBB1BB7-5" target="NVnCQtZbrxtKKmBB1BB7-8">
          <mxGeometry relative="1" as="geometry">
            <mxPoint x="354.8600000000001" y="274.06000000000006" as="targetPoint" />
          </mxGeometry>
        </mxCell>
        <mxCell id="NVnCQtZbrxtKKmBB1BB7-4" value="pembayaran" style="edgeLabel;html=1;align=center;verticalAlign=middle;resizable=0;points=[];fontSize=17;" vertex="1" connectable="0" parent="NVnCQtZbrxtKKmBB1BB7-3">
          <mxGeometry x="-0.5105" y="-3" relative="1" as="geometry">
            <mxPoint as="offset" />
          </mxGeometry>
        </mxCell>
        <mxCell id="3VnZA3nmT3vvTwH0N_-h-5" style="edgeStyle=orthogonalEdgeStyle;rounded=0;orthogonalLoop=1;jettySize=auto;html=1;exitX=0.5;exitY=1;exitDx=0;exitDy=0;entryX=0.006;entryY=0.368;entryDx=0;entryDy=0;entryPerimeter=0;fontSize=17;startArrow=none;startFill=0;endArrow=classic;endFill=1;" edge="1" parent="1" source="NVnCQtZbrxtKKmBB1BB7-5" target="NVnCQtZbrxtKKmBB1BB7-8">
          <mxGeometry relative="1" as="geometry" />
        </mxCell>
        <mxCell id="3VnZA3nmT3vvTwH0N_-h-6" value="Membuat_Laporan" style="edgeLabel;html=1;align=center;verticalAlign=middle;resizable=0;points=[];fontSize=17;" vertex="1" connectable="0" parent="3VnZA3nmT3vvTwH0N_-h-5">
          <mxGeometry x="0.1255" y="-1" relative="1" as="geometry">
            <mxPoint x="49" as="offset" />
          </mxGeometry>
        </mxCell>
        <mxCell id="NVnCQtZbrxtKKmBB1BB7-5" value="Kasir" style="rounded=0;whiteSpace=wrap;html=1;" vertex="1" parent="1">
          <mxGeometry x="2" y="100" width="120" height="60" as="geometry" />
        </mxCell>
        <mxCell id="NVnCQtZbrxtKKmBB1BB7-6" style="edgeStyle=orthogonalEdgeStyle;rounded=0;orthogonalLoop=1;jettySize=auto;html=1;entryX=0.405;entryY=1.069;entryDx=0;entryDy=0;entryPerimeter=0;fontSize=17;exitX=0;exitY=0.684;exitDx=0;exitDy=0;exitPerimeter=0;" edge="1" parent="1" target="NVnCQtZbrxtKKmBB1BB7-5" source="NVnCQtZbrxtKKmBB1BB7-8">
          <mxGeometry relative="1" as="geometry">
            <mxPoint x="314" y="352" as="sourcePoint" />
          </mxGeometry>
        </mxCell>
        <mxCell id="NVnCQtZbrxtKKmBB1BB7-7" value="Laporan Pembayaran" style="edgeLabel;html=1;align=center;verticalAlign=middle;resizable=0;points=[];fontSize=17;" vertex="1" connectable="0" parent="NVnCQtZbrxtKKmBB1BB7-6">
          <mxGeometry x="-0.3137" y="4" relative="1" as="geometry">
            <mxPoint x="17" as="offset" />
          </mxGeometry>
        </mxCell>
        <mxCell id="wMjJxN7XQBI4Dl49JJMS-15" style="edgeStyle=none;rounded=0;orthogonalLoop=1;jettySize=auto;html=1;fontSize=17;entryX=0.5;entryY=0;entryDx=0;entryDy=0;exitX=1;exitY=1;exitDx=0;exitDy=0;" edge="1" parent="1" source="NVnCQtZbrxtKKmBB1BB7-8" target="vqluylLDk3Z0Pv0C5D-C-7">
          <mxGeometry relative="1" as="geometry" />
        </mxCell>
        <mxCell id="wMjJxN7XQBI4Dl49JJMS-16" value="Rec_user" style="edgeLabel;html=1;align=center;verticalAlign=middle;resizable=0;points=[];fontSize=17;" vertex="1" connectable="0" parent="wMjJxN7XQBI4Dl49JJMS-15">
          <mxGeometry x="-0.4306" y="-3" relative="1" as="geometry">
            <mxPoint as="offset" />
          </mxGeometry>
        </mxCell>
        <mxCell id="wMjJxN7XQBI4Dl49JJMS-19" style="edgeStyle=none;rounded=0;orthogonalLoop=1;jettySize=auto;html=1;exitX=0;exitY=1;exitDx=0;exitDy=0;entryX=0.463;entryY=-0.028;entryDx=0;entryDy=0;entryPerimeter=0;fontSize=17;" edge="1" parent="1" source="NVnCQtZbrxtKKmBB1BB7-8" target="NVnCQtZbrxtKKmBB1BB7-9">
          <mxGeometry relative="1" as="geometry" />
        </mxCell>
        <mxCell id="wMjJxN7XQBI4Dl49JJMS-20" value="Rec_paket" style="edgeLabel;html=1;align=center;verticalAlign=middle;resizable=0;points=[];fontSize=17;" vertex="1" connectable="0" parent="wMjJxN7XQBI4Dl49JJMS-19">
          <mxGeometry x="-0.1202" y="-3" relative="1" as="geometry">
            <mxPoint as="offset" />
          </mxGeometry>
        </mxCell>
        <mxCell id="NVnCQtZbrxtKKmBB1BB7-8" value="Mengolah&lt;br&gt;Data&lt;br&gt;Transaksi" style="ellipse;whiteSpace=wrap;html=1;aspect=fixed;fontSize=17;" vertex="1" parent="1">
          <mxGeometry x="272" y="290" width="120" height="120" as="geometry" />
        </mxCell>
        <mxCell id="wMjJxN7XQBI4Dl49JJMS-34" style="edgeStyle=none;rounded=0;orthogonalLoop=1;jettySize=auto;html=1;exitX=0.25;exitY=1;exitDx=0;exitDy=0;fontSize=17;" edge="1" parent="1" source="NVnCQtZbrxtKKmBB1BB7-9" target="wMjJxN7XQBI4Dl49JJMS-14">
          <mxGeometry relative="1" as="geometry" />
        </mxCell>
        <mxCell id="wMjJxN7XQBI4Dl49JJMS-35" value="Rec_Paket" style="edgeLabel;html=1;align=center;verticalAlign=middle;resizable=0;points=[];fontSize=17;" vertex="1" connectable="0" parent="wMjJxN7XQBI4Dl49JJMS-34">
          <mxGeometry x="-0.2394" y="-1" relative="1" as="geometry">
            <mxPoint x="1" as="offset" />
          </mxGeometry>
        </mxCell>
        <mxCell id="NVnCQtZbrxtKKmBB1BB7-9" value="Paket" style="shape=partialRectangle;whiteSpace=wrap;html=1;left=0;right=0;fillColor=none;fontSize=17;" vertex="1" parent="1">
          <mxGeometry x="38" y="521" width="120" height="60" as="geometry" />
        </mxCell>
        <mxCell id="NVnCQtZbrxtKKmBB1BB7-10" value="Pelanggan" style="shape=partialRectangle;whiteSpace=wrap;html=1;left=0;right=0;fillColor=none;fontSize=17;" vertex="1" parent="1">
          <mxGeometry x="241" y="521" width="120" height="60" as="geometry" />
        </mxCell>
        <mxCell id="vqluylLDk3Z0Pv0C5D-C-1" style="edgeStyle=orthogonalEdgeStyle;rounded=0;orthogonalLoop=1;jettySize=auto;html=1;exitX=0.333;exitY=0;exitDx=0;exitDy=0;entryX=0;entryY=0.5;entryDx=0;entryDy=0;fontSize=17;exitPerimeter=0;" edge="1" parent="1" target="vqluylLDk3Z0Pv0C5D-C-5" source="vqluylLDk3Z0Pv0C5D-C-6">
          <mxGeometry relative="1" as="geometry">
            <mxPoint x="508" y="258.0000000000001" as="sourcePoint" />
          </mxGeometry>
        </mxCell>
        <mxCell id="vqluylLDk3Z0Pv0C5D-C-2" value="list Pesanan" style="edgeLabel;html=1;align=center;verticalAlign=middle;resizable=0;points=[];fontSize=17;" vertex="1" connectable="0" parent="vqluylLDk3Z0Pv0C5D-C-1">
          <mxGeometry x="0.0823" y="-3" relative="1" as="geometry">
            <mxPoint x="48" as="offset" />
          </mxGeometry>
        </mxCell>
        <mxCell id="vqluylLDk3Z0Pv0C5D-C-3" style="edgeStyle=orthogonalEdgeStyle;rounded=0;orthogonalLoop=1;jettySize=auto;html=1;exitX=0.5;exitY=1;exitDx=0;exitDy=0;entryX=1;entryY=0;entryDx=0;entryDy=0;fontSize=17;" edge="1" parent="1" source="vqluylLDk3Z0Pv0C5D-C-5" target="vqluylLDk3Z0Pv0C5D-C-6">
          <mxGeometry relative="1" as="geometry">
            <mxPoint x="598" y="348" as="targetPoint" />
          </mxGeometry>
        </mxCell>
        <mxCell id="vqluylLDk3Z0Pv0C5D-C-4" value="status_pesanan" style="edgeLabel;html=1;align=center;verticalAlign=middle;resizable=0;points=[];fontSize=17;" vertex="1" connectable="0" parent="vqluylLDk3Z0Pv0C5D-C-3">
          <mxGeometry x="-0.6833" y="-1" relative="1" as="geometry">
            <mxPoint as="offset" />
          </mxGeometry>
        </mxCell>
        <mxCell id="vqluylLDk3Z0Pv0C5D-C-5" value="Karyawan" style="rounded=0;whiteSpace=wrap;html=1;" vertex="1" parent="1">
          <mxGeometry x="706" y="96" width="120" height="60" as="geometry" />
        </mxCell>
        <mxCell id="vqluylLDk3Z0Pv0C5D-C-6" value="Mengolah&lt;br&gt;Data&lt;br&gt;Pesanan" style="ellipse;whiteSpace=wrap;html=1;aspect=fixed;fontSize=17;" vertex="1" parent="1">
          <mxGeometry x="446" y="286" width="120" height="120" as="geometry" />
        </mxCell>
        <mxCell id="vqluylLDk3Z0Pv0C5D-C-7" value="User" style="shape=partialRectangle;whiteSpace=wrap;html=1;left=0;right=0;fillColor=none;fontSize=17;" vertex="1" parent="1">
          <mxGeometry x="441" y="520" width="120" height="60" as="geometry" />
        </mxCell>
        <mxCell id="vqluylLDk3Z0Pv0C5D-C-8" value="transaksi" style="shape=partialRectangle;whiteSpace=wrap;html=1;left=0;right=0;fillColor=none;fontSize=17;" vertex="1" parent="1">
          <mxGeometry x="642" y="520" width="120" height="60" as="geometry" />
        </mxCell>
        <mxCell id="wMjJxN7XQBI4Dl49JJMS-6" style="edgeStyle=orthogonalEdgeStyle;rounded=0;orthogonalLoop=1;jettySize=auto;html=1;entryX=0.369;entryY=-0.002;entryDx=0;entryDy=0;entryPerimeter=0;fontSize=17;exitX=-0.007;exitY=0.399;exitDx=0;exitDy=0;exitPerimeter=0;" edge="1" parent="1" target="wMjJxN7XQBI4Dl49JJMS-10" source="wMjJxN7XQBI4Dl49JJMS-14">
          <mxGeometry relative="1" as="geometry">
            <mxPoint x="230" y="755" as="sourcePoint" />
          </mxGeometry>
        </mxCell>
        <mxCell id="wMjJxN7XQBI4Dl49JJMS-7" value="Laporan transaksi" style="edgeLabel;html=1;align=center;verticalAlign=middle;resizable=0;points=[];fontSize=17;" vertex="1" connectable="0" parent="wMjJxN7XQBI4Dl49JJMS-6">
          <mxGeometry x="-0.0472" y="-1" relative="1" as="geometry">
            <mxPoint as="offset" />
          </mxGeometry>
        </mxCell>
        <mxCell id="wMjJxN7XQBI4Dl49JJMS-8" style="edgeStyle=orthogonalEdgeStyle;rounded=0;orthogonalLoop=1;jettySize=auto;html=1;exitX=0.75;exitY=0;exitDx=0;exitDy=0;fontSize=17;" edge="1" parent="1" source="wMjJxN7XQBI4Dl49JJMS-10" target="wMjJxN7XQBI4Dl49JJMS-14">
          <mxGeometry relative="1" as="geometry">
            <mxPoint x="320" y="850" as="targetPoint" />
          </mxGeometry>
        </mxCell>
        <mxCell id="wMjJxN7XQBI4Dl49JJMS-9" value="periode_lap" style="edgeLabel;html=1;align=center;verticalAlign=middle;resizable=0;points=[];fontSize=17;" vertex="1" connectable="0" parent="wMjJxN7XQBI4Dl49JJMS-8">
          <mxGeometry x="-0.3347" relative="1" as="geometry">
            <mxPoint as="offset" />
          </mxGeometry>
        </mxCell>
        <mxCell id="wMjJxN7XQBI4Dl49JJMS-10" value="Kepala Laundry" style="rounded=1;whiteSpace=wrap;html=1;" vertex="1" parent="1">
          <mxGeometry x="2" y="889.36" width="120" height="60" as="geometry" />
        </mxCell>
        <mxCell id="wMjJxN7XQBI4Dl49JJMS-14" value="Mengolah&lt;br&gt;Data&lt;br&gt;Laporan" style="ellipse;whiteSpace=wrap;html=1;aspect=fixed;fontSize=17;" vertex="1" parent="1">
          <mxGeometry x="270" y="705" width="120" height="120" as="geometry" />
        </mxCell>
        <mxCell id="wMjJxN7XQBI4Dl49JJMS-21" value="" style="endArrow=classic;html=1;rounded=0;fontSize=17;entryX=0.5;entryY=0;entryDx=0;entryDy=0;" edge="1" parent="1" target="NVnCQtZbrxtKKmBB1BB7-10">
          <mxGeometry width="50" height="50" relative="1" as="geometry">
            <mxPoint x="310" y="410" as="sourcePoint" />
            <mxPoint x="40" y="450" as="targetPoint" />
          </mxGeometry>
        </mxCell>
        <mxCell id="wMjJxN7XQBI4Dl49JJMS-22" value="Rec_Pelanggan" style="edgeLabel;html=1;align=center;verticalAlign=middle;resizable=0;points=[];fontSize=17;" vertex="1" connectable="0" parent="wMjJxN7XQBI4Dl49JJMS-21">
          <mxGeometry x="-0.2325" y="3" relative="1" as="geometry">
            <mxPoint as="offset" />
          </mxGeometry>
        </mxCell>
        <mxCell id="wMjJxN7XQBI4Dl49JJMS-23" value="" style="endArrow=classic;startArrow=classic;html=1;rounded=0;fontSize=17;exitX=0.5;exitY=0;exitDx=0;exitDy=0;" edge="1" parent="1" source="vqluylLDk3Z0Pv0C5D-C-8" target="NVnCQtZbrxtKKmBB1BB7-8">
          <mxGeometry width="50" height="50" relative="1" as="geometry">
            <mxPoint x="570" y="500" as="sourcePoint" />
            <mxPoint x="620" y="450" as="targetPoint" />
          </mxGeometry>
        </mxCell>
        <mxCell id="wMjJxN7XQBI4Dl49JJMS-24" value="Rec.Transaksi" style="edgeLabel;html=1;align=center;verticalAlign=middle;resizable=0;points=[];fontSize=17;" vertex="1" connectable="0" parent="wMjJxN7XQBI4Dl49JJMS-23">
          <mxGeometry x="0.5351" relative="1" as="geometry">
            <mxPoint x="61" y="42" as="offset" />
          </mxGeometry>
        </mxCell>
        <mxCell id="wMjJxN7XQBI4Dl49JJMS-25" value="" style="endArrow=classic;startArrow=classic;html=1;rounded=0;fontSize=17;exitX=0.75;exitY=0;exitDx=0;exitDy=0;" edge="1" parent="1" source="vqluylLDk3Z0Pv0C5D-C-8">
          <mxGeometry width="50" height="50" relative="1" as="geometry">
            <mxPoint x="865.48" y="520" as="sourcePoint" />
            <mxPoint x="550" y="380" as="targetPoint" />
          </mxGeometry>
        </mxCell>
        <mxCell id="wMjJxN7XQBI4Dl49JJMS-26" value="Rec.Transaksi" style="edgeLabel;html=1;align=center;verticalAlign=middle;resizable=0;points=[];fontSize=17;" vertex="1" connectable="0" parent="wMjJxN7XQBI4Dl49JJMS-25">
          <mxGeometry x="0.5351" relative="1" as="geometry">
            <mxPoint x="61" y="42" as="offset" />
          </mxGeometry>
        </mxCell>
        <mxCell id="wMjJxN7XQBI4Dl49JJMS-28" value="" style="endArrow=none;startArrow=classic;html=1;rounded=0;fontSize=17;entryX=0.5;entryY=1;entryDx=0;entryDy=0;exitX=1;exitY=0.5;exitDx=0;exitDy=0;endFill=0;" edge="1" parent="1" source="wMjJxN7XQBI4Dl49JJMS-14" target="vqluylLDk3Z0Pv0C5D-C-8">
          <mxGeometry width="50" height="50" relative="1" as="geometry">
            <mxPoint x="560" y="670" as="sourcePoint" />
            <mxPoint x="610" y="620" as="targetPoint" />
          </mxGeometry>
        </mxCell>
        <mxCell id="wMjJxN7XQBI4Dl49JJMS-29" value="Rec_transaksi" style="edgeLabel;html=1;align=center;verticalAlign=middle;resizable=0;points=[];fontSize=17;" vertex="1" connectable="0" parent="wMjJxN7XQBI4Dl49JJMS-28">
          <mxGeometry x="-0.1546" y="-2" relative="1" as="geometry">
            <mxPoint as="offset" />
          </mxGeometry>
        </mxCell>
        <mxCell id="wMjJxN7XQBI4Dl49JJMS-30" value="" style="endArrow=none;startArrow=classic;html=1;rounded=0;fontSize=17;exitX=0.667;exitY=0.029;exitDx=0;exitDy=0;exitPerimeter=0;endFill=0;" edge="1" parent="1" source="wMjJxN7XQBI4Dl49JJMS-14" target="vqluylLDk3Z0Pv0C5D-C-7">
          <mxGeometry width="50" height="50" relative="1" as="geometry">
            <mxPoint x="370" y="700" as="sourcePoint" />
            <mxPoint x="420" y="650" as="targetPoint" />
          </mxGeometry>
        </mxCell>
        <mxCell id="wMjJxN7XQBI4Dl49JJMS-31" value="Rec_User" style="edgeLabel;html=1;align=center;verticalAlign=middle;resizable=0;points=[];fontSize=17;" vertex="1" connectable="0" parent="wMjJxN7XQBI4Dl49JJMS-30">
          <mxGeometry x="-0.363" y="-3" relative="1" as="geometry">
            <mxPoint y="1" as="offset" />
          </mxGeometry>
        </mxCell>
        <mxCell id="wMjJxN7XQBI4Dl49JJMS-32" value="" style="endArrow=none;startArrow=classic;html=1;rounded=0;fontSize=17;entryX=0.5;entryY=1;entryDx=0;entryDy=0;endFill=0;" edge="1" parent="1" target="NVnCQtZbrxtKKmBB1BB7-10">
          <mxGeometry width="50" height="50" relative="1" as="geometry">
            <mxPoint x="301" y="710" as="sourcePoint" />
            <mxPoint x="270" y="600" as="targetPoint" />
            <Array as="points" />
          </mxGeometry>
        </mxCell>
        <mxCell id="wMjJxN7XQBI4Dl49JJMS-33" value="Rec_Pelanggan" style="edgeLabel;html=1;align=center;verticalAlign=middle;resizable=0;points=[];fontSize=17;" vertex="1" connectable="0" parent="wMjJxN7XQBI4Dl49JJMS-32">
          <mxGeometry x="-0.5046" relative="1" as="geometry">
            <mxPoint y="-46" as="offset" />
          </mxGeometry>
        </mxCell>
        <mxCell id="qjrd3eKuODRcjqtblX96-1" style="edgeStyle=orthogonalEdgeStyle;rounded=0;orthogonalLoop=1;jettySize=auto;html=1;exitX=1;exitY=0.25;exitDx=0;exitDy=0;entryX=1;entryY=1;entryDx=0;entryDy=0;fontSize=17;startArrow=none;startFill=0;endArrow=classic;endFill=1;" edge="1" parent="1" target="wMjJxN7XQBI4Dl49JJMS-14">
          <mxGeometry relative="1" as="geometry">
            <mxPoint x="122" y="930.9200000000001" as="sourcePoint" />
            <mxPoint x="450.08000000000015" y="800.0000000000002" as="targetPoint" />
          </mxGeometry>
        </mxCell>
        <mxCell id="qjrd3eKuODRcjqtblX96-2" value="revisi_laporan" style="edgeLabel;html=1;align=center;verticalAlign=middle;resizable=0;points=[];fontSize=17;" vertex="1" connectable="0" parent="qjrd3eKuODRcjqtblX96-1">
          <mxGeometry x="-0.0981" y="-3" relative="1" as="geometry">
            <mxPoint y="-4" as="offset" />
          </mxGeometry>
        </mxCell>
      </root>
    </mxGraphModel>
  </diagram>
  <diagram id="ngHB8QPKYPY-uUQaLAaR" name="Halaman-3">
    <mxGraphModel dx="1447" dy="772" grid="1" gridSize="10" guides="1" tooltips="1" connect="1" arrows="1" fold="1" page="1" pageScale="1" pageWidth="827" pageHeight="1169" math="0" shadow="0">
      <root>
        <mxCell id="0" />
        <mxCell id="1" parent="0" />
        <mxCell id="3JBPiMKz8CoHigvMFbxr-1" style="edgeStyle=orthogonalEdgeStyle;rounded=0;orthogonalLoop=1;jettySize=auto;html=1;exitX=0.75;exitY=1;exitDx=0;exitDy=0;entryX=0;entryY=1;entryDx=0;entryDy=0;fontSize=17;" edge="1" parent="1" source="3JBPiMKz8CoHigvMFbxr-7" target="3JBPiMKz8CoHigvMFbxr-11">
          <mxGeometry relative="1" as="geometry">
            <mxPoint x="378.36038969321066" y="238.36038969321066" as="targetPoint" />
          </mxGeometry>
        </mxCell>
        <mxCell id="3JBPiMKz8CoHigvMFbxr-2" value="id_transaksi" style="edgeLabel;html=1;align=center;verticalAlign=middle;resizable=0;points=[];fontSize=17;" vertex="1" connectable="0" parent="3JBPiMKz8CoHigvMFbxr-1">
          <mxGeometry x="-0.4032" y="3" relative="1" as="geometry">
            <mxPoint x="48" as="offset" />
          </mxGeometry>
        </mxCell>
        <mxCell id="3JBPiMKz8CoHigvMFbxr-3" style="edgeStyle=orthogonalEdgeStyle;rounded=0;orthogonalLoop=1;jettySize=auto;html=1;exitX=1;exitY=0.75;exitDx=0;exitDy=0;entryX=0;entryY=0.5;entryDx=0;entryDy=0;fontSize=17;" edge="1" parent="1" source="3JBPiMKz8CoHigvMFbxr-7" target="3JBPiMKz8CoHigvMFbxr-11">
          <mxGeometry relative="1" as="geometry">
            <mxPoint x="392.8600000000001" y="224.06000000000006" as="targetPoint" />
            <Array as="points">
              <mxPoint x="400" y="95" />
              <mxPoint x="400" y="110" />
            </Array>
          </mxGeometry>
        </mxCell>
        <mxCell id="3JBPiMKz8CoHigvMFbxr-4" value="pembayaran" style="edgeLabel;html=1;align=center;verticalAlign=middle;resizable=0;points=[];fontSize=17;" vertex="1" connectable="0" parent="3JBPiMKz8CoHigvMFbxr-3">
          <mxGeometry x="-0.5105" y="-3" relative="1" as="geometry">
            <mxPoint as="offset" />
          </mxGeometry>
        </mxCell>
        <mxCell id="3JBPiMKz8CoHigvMFbxr-5" style="edgeStyle=orthogonalEdgeStyle;rounded=0;orthogonalLoop=1;jettySize=auto;html=1;exitX=0.5;exitY=1;exitDx=0;exitDy=0;entryX=0;entryY=0.5;entryDx=0;entryDy=0;fontSize=17;startArrow=none;startFill=0;endArrow=classic;endFill=1;" edge="1" parent="1" source="3JBPiMKz8CoHigvMFbxr-7">
          <mxGeometry relative="1" as="geometry">
            <mxPoint x="700.0000000000002" y="528" as="targetPoint" />
            <Array as="points">
              <mxPoint x="100" y="508" />
              <mxPoint x="640" y="508" />
              <mxPoint x="640" y="528" />
            </Array>
            <mxPoint x="100" y="137.9999999999999" as="sourcePoint" />
          </mxGeometry>
        </mxCell>
        <mxCell id="3JBPiMKz8CoHigvMFbxr-6" value="Membuat_laporan" style="edgeLabel;html=1;align=center;verticalAlign=middle;resizable=0;points=[];fontSize=17;" vertex="1" connectable="0" parent="3JBPiMKz8CoHigvMFbxr-5">
          <mxGeometry x="0.0674" y="3" relative="1" as="geometry">
            <mxPoint x="47" as="offset" />
          </mxGeometry>
        </mxCell>
        <mxCell id="3JBPiMKz8CoHigvMFbxr-7" value="Kasir" style="rounded=0;whiteSpace=wrap;html=1;" vertex="1" parent="1">
          <mxGeometry x="40" y="50" width="120" height="60" as="geometry" />
        </mxCell>
        <mxCell id="3JBPiMKz8CoHigvMFbxr-8" style="edgeStyle=orthogonalEdgeStyle;rounded=0;orthogonalLoop=1;jettySize=auto;html=1;exitX=0;exitY=1;exitDx=0;exitDy=0;entryX=0.405;entryY=1.069;entryDx=0;entryDy=0;entryPerimeter=0;fontSize=17;" edge="1" parent="1" target="3JBPiMKz8CoHigvMFbxr-7" source="3JBPiMKz8CoHigvMFbxr-12">
          <mxGeometry relative="1" as="geometry">
            <mxPoint x="352" y="302" as="sourcePoint" />
          </mxGeometry>
        </mxCell>
        <mxCell id="3JBPiMKz8CoHigvMFbxr-9" value="Laporan Pembayaran" style="edgeLabel;html=1;align=center;verticalAlign=middle;resizable=0;points=[];fontSize=17;" vertex="1" connectable="0" parent="3JBPiMKz8CoHigvMFbxr-8">
          <mxGeometry x="-0.3137" y="4" relative="1" as="geometry">
            <mxPoint x="5" as="offset" />
          </mxGeometry>
        </mxCell>
        <mxCell id="3JBPiMKz8CoHigvMFbxr-11" value="1.1&lt;br&gt;Cata Data Pesanan" style="ellipse;whiteSpace=wrap;html=1;aspect=fixed;fontSize=17;" vertex="1" parent="1">
          <mxGeometry x="414" y="50" width="120" height="120" as="geometry" />
        </mxCell>
        <mxCell id="3JBPiMKz8CoHigvMFbxr-12" value="1.2&lt;br&gt;Membuat&lt;br&gt;Laporan&lt;br&gt;Kasir" style="ellipse;whiteSpace=wrap;html=1;aspect=fixed;fontSize=17;" vertex="1" parent="1">
          <mxGeometry x="700" y="440" width="120" height="120" as="geometry" />
        </mxCell>
        <mxCell id="3JBPiMKz8CoHigvMFbxr-16" style="edgeStyle=orthogonalEdgeStyle;rounded=0;orthogonalLoop=1;jettySize=auto;html=1;exitX=0.25;exitY=0;exitDx=0;exitDy=0;entryX=0.2;entryY=0.933;entryDx=0;entryDy=0;entryPerimeter=0;fontSize=17;startArrow=classic;startFill=1;endArrow=none;endFill=0;" edge="1" parent="1" source="3JBPiMKz8CoHigvMFbxr-13" target="3JBPiMKz8CoHigvMFbxr-11">
          <mxGeometry relative="1" as="geometry" />
        </mxCell>
        <mxCell id="3JBPiMKz8CoHigvMFbxr-23" value="Rec_Transaksi" style="edgeLabel;html=1;align=center;verticalAlign=middle;resizable=0;points=[];fontSize=17;" vertex="1" connectable="0" parent="3JBPiMKz8CoHigvMFbxr-16">
          <mxGeometry x="-0.1677" y="2" relative="1" as="geometry">
            <mxPoint as="offset" />
          </mxGeometry>
        </mxCell>
        <mxCell id="3JBPiMKz8CoHigvMFbxr-24" style="edgeStyle=orthogonalEdgeStyle;rounded=0;orthogonalLoop=1;jettySize=auto;html=1;exitX=0.75;exitY=1;exitDx=0;exitDy=0;entryX=0.025;entryY=0.317;entryDx=0;entryDy=0;entryPerimeter=0;fontSize=17;startArrow=classic;startFill=1;endArrow=classic;endFill=1;" edge="1" parent="1" source="3JBPiMKz8CoHigvMFbxr-13" target="3JBPiMKz8CoHigvMFbxr-12">
          <mxGeometry relative="1" as="geometry" />
        </mxCell>
        <mxCell id="3JBPiMKz8CoHigvMFbxr-25" value="Rec_Transaksi" style="edgeLabel;html=1;align=center;verticalAlign=middle;resizable=0;points=[];fontSize=17;" vertex="1" connectable="0" parent="3JBPiMKz8CoHigvMFbxr-24">
          <mxGeometry x="-0.165" relative="1" as="geometry">
            <mxPoint as="offset" />
          </mxGeometry>
        </mxCell>
        <mxCell id="3JBPiMKz8CoHigvMFbxr-13" value="Transaksi" style="shape=partialRectangle;whiteSpace=wrap;html=1;left=0;right=0;fillColor=none;fontSize=17;" vertex="1" parent="1">
          <mxGeometry x="220" y="320" width="120" height="60" as="geometry" />
        </mxCell>
        <mxCell id="3JBPiMKz8CoHigvMFbxr-18" style="edgeStyle=orthogonalEdgeStyle;rounded=0;orthogonalLoop=1;jettySize=auto;html=1;exitX=0.5;exitY=0;exitDx=0;exitDy=0;entryX=0.717;entryY=0.983;entryDx=0;entryDy=0;entryPerimeter=0;fontSize=17;startArrow=classic;startFill=1;endArrow=classic;endFill=1;" edge="1" parent="1" source="3JBPiMKz8CoHigvMFbxr-14" target="3JBPiMKz8CoHigvMFbxr-11">
          <mxGeometry relative="1" as="geometry" />
        </mxCell>
        <mxCell id="3JBPiMKz8CoHigvMFbxr-21" value="Rec_pelanggan" style="edgeLabel;html=1;align=center;verticalAlign=middle;resizable=0;points=[];fontSize=17;" vertex="1" connectable="0" parent="3JBPiMKz8CoHigvMFbxr-18">
          <mxGeometry x="0.2497" y="-1" relative="1" as="geometry">
            <mxPoint as="offset" />
          </mxGeometry>
        </mxCell>
        <mxCell id="3JBPiMKz8CoHigvMFbxr-14" value="Pelanggan" style="shape=partialRectangle;whiteSpace=wrap;html=1;left=0;right=0;fillColor=none;fontSize=17;" vertex="1" parent="1">
          <mxGeometry x="440" y="320" width="120" height="60" as="geometry" />
        </mxCell>
        <mxCell id="3JBPiMKz8CoHigvMFbxr-20" style="edgeStyle=orthogonalEdgeStyle;rounded=0;orthogonalLoop=1;jettySize=auto;html=1;exitX=0;exitY=0.5;exitDx=0;exitDy=0;entryX=1;entryY=0.5;entryDx=0;entryDy=0;fontSize=17;startArrow=classic;startFill=1;endArrow=classic;endFill=1;" edge="1" parent="1" source="3JBPiMKz8CoHigvMFbxr-19" target="3JBPiMKz8CoHigvMFbxr-11">
          <mxGeometry relative="1" as="geometry" />
        </mxCell>
        <mxCell id="3JBPiMKz8CoHigvMFbxr-22" value="Rec&lt;br&gt;Pelanggan" style="edgeLabel;html=1;align=center;verticalAlign=middle;resizable=0;points=[];fontSize=17;" vertex="1" connectable="0" parent="3JBPiMKz8CoHigvMFbxr-20">
          <mxGeometry x="0.2381" relative="1" as="geometry">
            <mxPoint x="13" as="offset" />
          </mxGeometry>
        </mxCell>
        <mxCell id="3JBPiMKz8CoHigvMFbxr-19" value="Pelanggan" style="shape=partialRectangle;whiteSpace=wrap;html=1;left=0;right=0;fillColor=none;fontSize=17;" vertex="1" parent="1">
          <mxGeometry x="660" y="80" width="120" height="60" as="geometry" />
        </mxCell>
      </root>
    </mxGraphModel>
  </diagram>
  <diagram id="c86qtGFc01IgnOuIhDo3" name="Halaman-4">
    <mxGraphModel dx="1447" dy="772" grid="1" gridSize="10" guides="1" tooltips="1" connect="1" arrows="1" fold="1" page="1" pageScale="1" pageWidth="827" pageHeight="1169" math="0" shadow="0">
      <root>
        <mxCell id="0" />
        <mxCell id="1" parent="0" />
        <mxCell id="_c72wKiFoXzMp8iRhpo6-1" style="edgeStyle=orthogonalEdgeStyle;rounded=0;orthogonalLoop=1;jettySize=auto;html=1;exitX=0.992;exitY=0.331;exitDx=0;exitDy=0;entryX=0;entryY=0.5;entryDx=0;entryDy=0;fontSize=17;exitPerimeter=0;" edge="1" parent="1" target="_c72wKiFoXzMp8iRhpo6-5" source="_c72wKiFoXzMp8iRhpo6-7">
          <mxGeometry relative="1" as="geometry">
            <mxPoint x="490" y="272.0000000000001" as="sourcePoint" />
          </mxGeometry>
        </mxCell>
        <mxCell id="_c72wKiFoXzMp8iRhpo6-2" value="list Pesanan" style="edgeLabel;html=1;align=center;verticalAlign=middle;resizable=0;points=[];fontSize=17;" vertex="1" connectable="0" parent="_c72wKiFoXzMp8iRhpo6-1">
          <mxGeometry x="0.0823" y="-3" relative="1" as="geometry">
            <mxPoint x="48" as="offset" />
          </mxGeometry>
        </mxCell>
        <mxCell id="_c72wKiFoXzMp8iRhpo6-3" style="edgeStyle=orthogonalEdgeStyle;rounded=0;orthogonalLoop=1;jettySize=auto;html=1;exitX=0.5;exitY=1;exitDx=0;exitDy=0;entryX=1;entryY=1;entryDx=0;entryDy=0;fontSize=17;" edge="1" parent="1" source="_c72wKiFoXzMp8iRhpo6-5" target="_c72wKiFoXzMp8iRhpo6-7">
          <mxGeometry relative="1" as="geometry">
            <mxPoint x="580" y="362" as="targetPoint" />
          </mxGeometry>
        </mxCell>
        <mxCell id="_c72wKiFoXzMp8iRhpo6-4" value="status_pesanan" style="edgeLabel;html=1;align=center;verticalAlign=middle;resizable=0;points=[];fontSize=17;" vertex="1" connectable="0" parent="_c72wKiFoXzMp8iRhpo6-3">
          <mxGeometry x="-0.6833" y="-1" relative="1" as="geometry">
            <mxPoint x="-147" as="offset" />
          </mxGeometry>
        </mxCell>
        <mxCell id="_c72wKiFoXzMp8iRhpo6-5" value="Karyawan" style="rounded=0;whiteSpace=wrap;html=1;" vertex="1" parent="1">
          <mxGeometry x="688" y="110" width="120" height="60" as="geometry" />
        </mxCell>
        <mxCell id="_c72wKiFoXzMp8iRhpo6-7" value="2.1&lt;br&gt;Menyelesaikan&lt;br&gt;Pesanan" style="ellipse;whiteSpace=wrap;html=1;aspect=fixed;fontSize=17;" vertex="1" parent="1">
          <mxGeometry x="220" y="100" width="120" height="120" as="geometry" />
        </mxCell>
        <mxCell id="Cy22SfrS4kx_lIjJBi8U-2" value="Rec_transaksi" style="edgeStyle=orthogonalEdgeStyle;rounded=0;orthogonalLoop=1;jettySize=auto;html=1;exitX=0.5;exitY=0;exitDx=0;exitDy=0;entryX=0.5;entryY=1;entryDx=0;entryDy=0;fontSize=17;startArrow=classic;startFill=1;endArrow=classic;endFill=1;" edge="1" parent="1" source="Cy22SfrS4kx_lIjJBi8U-1" target="_c72wKiFoXzMp8iRhpo6-7">
          <mxGeometry relative="1" as="geometry">
            <Array as="points">
              <mxPoint x="280" y="320" />
              <mxPoint x="280" y="320" />
            </Array>
          </mxGeometry>
        </mxCell>
        <mxCell id="Cy22SfrS4kx_lIjJBi8U-1" value="transaksi" style="shape=partialRectangle;whiteSpace=wrap;html=1;left=0;right=0;fillColor=none;fontSize=17;" vertex="1" parent="1">
          <mxGeometry x="220" y="390" width="120" height="60" as="geometry" />
        </mxCell>
      </root>
    </mxGraphModel>
  </diagram>
  <diagram id="pXkIqFuxuCCWQAut073B" name="Halaman-5">
    <mxGraphModel dx="1929" dy="1029" grid="1" gridSize="10" guides="1" tooltips="1" connect="1" arrows="1" fold="1" page="1" pageScale="1" pageWidth="827" pageHeight="1169" math="0" shadow="0">
      <root>
        <mxCell id="0" />
        <mxCell id="1" parent="0" />
        <mxCell id="oYp1NRvHWmDqE6Fn3A_v-1" style="edgeStyle=orthogonalEdgeStyle;rounded=0;orthogonalLoop=1;jettySize=auto;html=1;exitX=0;exitY=0.5;exitDx=0;exitDy=0;entryX=0.369;entryY=-0.002;entryDx=0;entryDy=0;entryPerimeter=0;fontSize=17;" edge="1" parent="1" target="oYp1NRvHWmDqE6Fn3A_v-7" source="oYp1NRvHWmDqE6Fn3A_v-8">
          <mxGeometry relative="1" as="geometry">
            <mxPoint x="348.36038969321066" y="470.0896103067893" as="sourcePoint" />
          </mxGeometry>
        </mxCell>
        <mxCell id="oYp1NRvHWmDqE6Fn3A_v-2" value="Laporan transaksi" style="edgeLabel;html=1;align=center;verticalAlign=middle;resizable=0;points=[];fontSize=17;" vertex="1" connectable="0" parent="oYp1NRvHWmDqE6Fn3A_v-1">
          <mxGeometry x="-0.0472" y="-1" relative="1" as="geometry">
            <mxPoint x="13" as="offset" />
          </mxGeometry>
        </mxCell>
        <mxCell id="oYp1NRvHWmDqE6Fn3A_v-3" style="edgeStyle=orthogonalEdgeStyle;rounded=0;orthogonalLoop=1;jettySize=auto;html=1;exitX=0.75;exitY=0;exitDx=0;exitDy=0;fontSize=17;entryX=0.5;entryY=1;entryDx=0;entryDy=0;" edge="1" parent="1" source="oYp1NRvHWmDqE6Fn3A_v-7" target="oYp1NRvHWmDqE6Fn3A_v-8">
          <mxGeometry relative="1" as="geometry">
            <mxPoint x="412.0000000000002" y="496.45" as="targetPoint" />
          </mxGeometry>
        </mxCell>
        <mxCell id="oYp1NRvHWmDqE6Fn3A_v-4" value="periode_lap" style="edgeLabel;html=1;align=center;verticalAlign=middle;resizable=0;points=[];fontSize=17;" vertex="1" connectable="0" parent="oYp1NRvHWmDqE6Fn3A_v-3">
          <mxGeometry x="-0.3347" relative="1" as="geometry">
            <mxPoint as="offset" />
          </mxGeometry>
        </mxCell>
        <mxCell id="oYp1NRvHWmDqE6Fn3A_v-5" style="edgeStyle=orthogonalEdgeStyle;rounded=0;orthogonalLoop=1;jettySize=auto;html=1;exitX=1;exitY=0.25;exitDx=0;exitDy=0;entryX=1;entryY=1;entryDx=0;entryDy=0;fontSize=17;startArrow=none;startFill=0;endArrow=classic;endFill=1;" edge="1" parent="1" source="oYp1NRvHWmDqE6Fn3A_v-7" target="oYp1NRvHWmDqE6Fn3A_v-8">
          <mxGeometry relative="1" as="geometry">
            <mxPoint x="458.08000000000015" y="488.53000000000014" as="targetPoint" />
          </mxGeometry>
        </mxCell>
        <mxCell id="oYp1NRvHWmDqE6Fn3A_v-6" value="revisi_laporan" style="edgeLabel;html=1;align=center;verticalAlign=middle;resizable=0;points=[];fontSize=17;" vertex="1" connectable="0" parent="oYp1NRvHWmDqE6Fn3A_v-5">
          <mxGeometry x="-0.0981" y="-3" relative="1" as="geometry">
            <mxPoint y="-4" as="offset" />
          </mxGeometry>
        </mxCell>
        <mxCell id="oYp1NRvHWmDqE6Fn3A_v-7" value="Kepala Laundry" style="rounded=1;whiteSpace=wrap;html=1;" vertex="1" parent="1">
          <mxGeometry x="10" y="604.45" width="120" height="60" as="geometry" />
        </mxCell>
        <mxCell id="oYp1NRvHWmDqE6Fn3A_v-8" value="3.1&lt;br&gt;Membuan&amp;nbsp;&lt;br&gt;Laporan&lt;br&gt;Pesanan" style="ellipse;whiteSpace=wrap;html=1;aspect=fixed;fontSize=17;" vertex="1" parent="1">
          <mxGeometry x="260" y="270" width="120" height="120" as="geometry" />
        </mxCell>
        <mxCell id="oYp1NRvHWmDqE6Fn3A_v-13" style="edgeStyle=orthogonalEdgeStyle;rounded=0;orthogonalLoop=1;jettySize=auto;html=1;exitX=0.5;exitY=1;exitDx=0;exitDy=0;entryX=0;entryY=0;entryDx=0;entryDy=0;fontSize=17;startArrow=none;startFill=0;endArrow=classic;endFill=1;" edge="1" parent="1" source="oYp1NRvHWmDqE6Fn3A_v-9" target="oYp1NRvHWmDqE6Fn3A_v-8">
          <mxGeometry relative="1" as="geometry" />
        </mxCell>
        <mxCell id="oYp1NRvHWmDqE6Fn3A_v-17" value="Rec_Paket" style="edgeLabel;html=1;align=center;verticalAlign=middle;resizable=0;points=[];fontSize=17;" vertex="1" connectable="0" parent="oYp1NRvHWmDqE6Fn3A_v-13">
          <mxGeometry x="-0.4155" y="3" relative="1" as="geometry">
            <mxPoint as="offset" />
          </mxGeometry>
        </mxCell>
        <mxCell id="oYp1NRvHWmDqE6Fn3A_v-9" value="Paket" style="shape=partialRectangle;whiteSpace=wrap;html=1;left=0;right=0;fillColor=none;fontSize=17;" vertex="1" parent="1">
          <mxGeometry x="50" y="130" width="120" height="60" as="geometry" />
        </mxCell>
        <mxCell id="oYp1NRvHWmDqE6Fn3A_v-14" value="Rec_Pelanggan" style="edgeStyle=orthogonalEdgeStyle;rounded=0;orthogonalLoop=1;jettySize=auto;html=1;exitX=0.5;exitY=1;exitDx=0;exitDy=0;entryX=0.5;entryY=0;entryDx=0;entryDy=0;fontSize=17;startArrow=none;startFill=0;endArrow=classic;endFill=1;" edge="1" parent="1">
          <mxGeometry y="50" relative="1" as="geometry">
            <mxPoint x="339" y="192" as="sourcePoint" />
            <mxPoint x="339" y="272" as="targetPoint" />
            <Array as="points">
              <mxPoint x="339" y="222" />
              <mxPoint x="339" y="222" />
            </Array>
            <mxPoint as="offset" />
          </mxGeometry>
        </mxCell>
        <mxCell id="oYp1NRvHWmDqE6Fn3A_v-10" value="Pelanggan" style="shape=partialRectangle;whiteSpace=wrap;html=1;left=0;right=0;fillColor=none;fontSize=17;" vertex="1" parent="1">
          <mxGeometry x="260" y="130" width="120" height="60" as="geometry" />
        </mxCell>
        <mxCell id="oYp1NRvHWmDqE6Fn3A_v-16" value="Rec_transaksii" style="edgeStyle=orthogonalEdgeStyle;rounded=0;orthogonalLoop=1;jettySize=auto;html=1;exitX=0;exitY=0.5;exitDx=0;exitDy=0;entryX=0.986;entryY=0.405;entryDx=0;entryDy=0;entryPerimeter=0;fontSize=17;startArrow=none;startFill=0;endArrow=classic;endFill=1;" edge="1" parent="1" source="oYp1NRvHWmDqE6Fn3A_v-11" target="oYp1NRvHWmDqE6Fn3A_v-8">
          <mxGeometry relative="1" as="geometry" />
        </mxCell>
        <mxCell id="oYp1NRvHWmDqE6Fn3A_v-11" value="Transaksi" style="shape=partialRectangle;whiteSpace=wrap;html=1;left=0;right=0;fillColor=none;fontSize=17;" vertex="1" parent="1">
          <mxGeometry x="602" y="289" width="120" height="60" as="geometry" />
        </mxCell>
      </root>
    </mxGraphModel>
  </diagram>
</mxfile>
